<svg enable-background="new 0 0 500 500" viewBox="0 0 500 500" xmlns="http://www.w3.org/2000/svg"><path d="m250 431.4c100.8 0 182.5-81.2 182.5-181.4 0-100.1-81.7-181.4-182.5-181.4s-182.5 81.2-182.5 181.4 81.7 181.4 182.5 181.4" fill="#d00d2d"/><path d="m250 422.7c96 0 173.8-77.3 173.8-172.7s-77.8-172.7-173.8-172.7-173.8 77.3-173.8 172.7 77.8 172.7 173.8 172.7" fill="#fff"/><path d="m250 414.6c91.4 0 165.6-73.7 165.6-164.5 0-90.9-74.1-164.5-165.6-164.5-91.4 0-165.6 73.7-165.6 164.5s74.2 164.5 165.6 164.5" fill="#d00d2d"/><path d="m250 412c90 0 163-72.5 163-162s-73-162-163-162-163 72.5-163 162 73 162 163 162" fill="#fff"/><path d="m292.7 92.3c-2.2 1.8-4.5 3.4-7 5-26.7 16.7-60.1 14.4-83.9-3.3h-.3c-.9 2.7-2 5.3-3.3 7.9-13.6 28.3-43.1 44-72.8 41.7l-1 1.1c.7 2.7 1.2 5.5 1.5 8.4 3.9 31.1-12.4 60.2-38.7 74.1l-.3 1.8c2.1 1.9 4 4 5.9 6.2 20.2 24.1 22.4 57.2 7.9 83.1l.5 1.3c2.8.5 5.6 1.2 8.3 2.1 30.1 9.4 49.9 36.2 51.7 65.8l3.5 2.2c2.6-1.1 5.3-2 8.1-2.8 30.4-8.7 61.7 2.8 79.7 26.4h2.5c1.6-2.3 3.4-4.6 5.3-6.8 20.7-23.7 53.3-31.1 81.3-21l1.4-.8c.1-2.8.3-5.7.7-8.5 4.5-31.1 27.9-54.8 57-61.3l.2-.2c-1.4-2.4-2.8-5-3.9-7.6-12.8-28.7-5.8-61.1 15.3-82.1l-.1-1c-2.5-1.3-5-2.7-7.4-4.3-26.3-17.3-37.9-48.5-31.5-77.4l-2.1-2.4c-2.8.3-5.7.5-8.6.5-31.6-.2-58.4-19.9-69-47.6" fill="#d00d2d"/><path d="m109.4 250c0-77.2 62.9-139.7 140.6-139.7 77.6 0 140.6 62.6 140.6 139.7s-63 139.7-140.6 139.7c-77.7 0-140.6-62.5-140.6-139.7" fill="#fff"/><path d="m250 362.4c62.5 0 113.1-50.3 113.1-112.4s-50.6-112.4-113.1-112.4-113.1 50.3-113.1 112.4 50.6 112.4 113.1 112.4" fill="#d00d2d"/><path d="m250 140.6c-60.8 0-110.1 49-110.1 109.4h110.1" fill="#fff"/><path d="m250 359.4c60.8 0 110.1-49 110.1-109.4h-110.1" fill="#fff"/><path d="m295.1 224.3c11.6 0 21-9.4 21-20.9s-9.4-20.9-21-20.9-21 9.4-21 20.9c-.1 11.5 9.3 20.9 21 20.9" fill="#fff"/><path d="m295 151.9c0 11.3-.4 23.3-2.9 28.2 2.1-.3 4.3-.2 6.4.1-3.1-5.3-3.2-24.8-3.2-28.3" fill="#fff"/><path d="m258.4 167c8 8 16.2 16.8 18 22 1.3-1.7 2.9-3.2 4.6-4.5-5.9-1.6-19.9-15.2-22.4-17.7" fill="#fff"/><path d="m251.8 203.4c11.4 0 14.9.4 19.8 2.9-.3-2.1-.2-4.3.1-6.4-5.3 3-16.3 3.2-19.9 3.2" fill="#fff"/><path d="m258.4 239.8c8-8 16.9-16.1 22.1-17.9-1.7-1.3-3.2-2.9-4.5-4.6-1.6 5.9-15.4 19.7-17.9 22.2" fill="#fff"/><path d="m295.1 247.3c0-11.3.4-15.7 2.9-20.6-2.1.3-4.3.2-6.4-.1 3.1 5.3 3.2 17.1 3.2 20.6" fill="#fff"/><path d="m331.8 239.7c-8-8-16.3-16.7-18-21.9-1.3 1.7-2.9 3.2-4.6 4.5 5.9 1.6 19.8 15.3 22.3 17.8" fill="#fff"/><path d="m346.9 203.4c-11.3 0-23.4-.4-28.4-2.9.3 2.1.2 4.3-.1 6.4 5.3-3.1 24.9-3.2 28.4-3.2" fill="#fff"/><path d="m326.6 171.9c-8 8-11.9 11.3-17.1 13 1.7 1.3 3.2 2.9 4.5 4.6 1.6-5.9 10.4-14.8 12.9-17.2" fill="#fff"/><path d="m288.3 177.6-2.9-11-.1-.1-.1.1 3 11 .1.1z" fill="#fff"/><path d="m284.8 164.7-1.4-5.2-.1.1 1.4 5.1z" fill="#fff"/><path d="m288.3 177.6-2.9-11-.1-.1-.1.1 3 11 .1.1z" fill="#fff"/><path d="m284.8 164.7-1.4-5.2-.1.1 1.4 5.1z" fill="#fff"/><path d="m281.8 180.2-5.7-9.9h-.1v.1l5.7 9.9h.1z" fill="#fff"/><path d="m275.1 168.6-2.7-4.6h-.1v.1l2.7 4.6h.1z" fill="#fff"/><path d="m271.9 189.9-9.9-5.7h-.1v.1l10 5.7h.1z" fill="#fff"/><path d="m260.3 183.2-4.7-2.7-.1.1h.1l4.6 2.7h.1z" fill="#fff"/><path d="m271.9 189.9-9.9-5.7h-.1v.1l10 5.7h.1z" fill="#fff"/><path d="m260.3 183.2-4.7-2.7-.1.1h.1l4.6 2.7h.1z" fill="#fff"/><path d="m269.2 196.3-11.1-3-.1.1.1.1 11.1 2.9z" fill="#fff"/><path d="m256.2 192.8-5.2-1.3h-.1l.1.1 5.1 1.3h.1z" fill="#fff"/><path d="m269.1 210.1-11.1 2.9-.1.1.1.1 11.1-3 .1-.1z" fill="#fff"/><path d="m256.1 213.6-5.2 1.3v.1.1l5.2-1.4z" fill="#fff"/><path d="m269.1 210.1-11.1 2.9-.1.1.1.1 11.1-3 .1-.1z" fill="#fff"/><path d="m256.1 213.6-5.2 1.3v.1.1l5.2-1.4z" fill="#fff"/><path d="m271.7 216.5-9.9 5.7-.1.1.1.1 10-5.8z" fill="#fff"/><path d="m260 223.2-4.6 2.7v.1h.1l4.6-2.7z" fill="#fff"/><path d="m281.5 226.4-5.8 9.9v.1l.1-.1 5.8-9.9z" fill="#fff"/><path d="m274.7 238-2.7 4.6.1.1v-.1l2.7-4.6z" fill="#fff"/><path d="m281.5 226.4-5.8 9.9v.1l.1-.1 5.8-9.9z" fill="#fff"/><path d="m274.7 238-2.7 4.6.1.1v-.1l2.7-4.6z" fill="#fff"/><path d="m287.9 229.1-3 11 .1.1h.1l2.9-11.1v-.1z" fill="#fff"/><path d="m284.4 242-1.4 5.2h.1.1l1.3-5.1v-.1z" fill="#fff"/><path d="m301.8 229.2 3 11v.1l.1-.1-3-11-.1-.1z" fill="#fff"/><path d="m305.3 242.1 1.4 5.2.1-.1-1.4-5.1z" fill="#fff"/><path d="m301.8 229.2 3 11v.1l.1-.1-3-11-.1-.1z" fill="#fff"/><path d="m305.3 242.1 1.4 5.2.1-.1-1.4-5.1z" fill="#fff"/><path d="m308.3 226.6 5.7 9.9h.1v-.1l-5.7-9.9h-.1z" fill="#fff"/><path d="m315 238.2 2.7 4.6h.1v-.1l-2.7-4.6h-.1z" fill="#fff"/><path d="m318.2 216.9 9.9 5.7h.1v-.1l-10-5.7z" fill="#fff"/><path d="m329.9 223.6 4.6 2.7.1-.1h-.1l-4.6-2.7h-.1z" fill="#fff"/><path d="m318.2 216.9 9.9 5.7h.1v-.1l-10-5.7z" fill="#fff"/><path d="m329.9 223.6 4.6 2.7.1-.1h-.1l-4.6-2.7h-.1z" fill="#fff"/><path d="m320.9 210.5 11.1 3 .1-.1-.1-.1-11.1-2.9z" fill="#fff"/><path d="m333.9 214 5.2 1.3h.1l-.1-.1-5.1-1.4-.1.1z" fill="#fff"/><path d="m321 196.7 11.1-2.9.1-.1-.1-.1-11.1 3-.1.1z" fill="#fff"/><path d="m334 193.2 5.2-1.3v-.1-.1l-5.2 1.4z" fill="#fff"/><path d="m321 196.7 11.1-2.9.1-.1-.1-.1-11.1 3-.1.1z" fill="#fff"/><path d="m334 193.2 5.2-1.3v-.1-.1l-5.2 1.4z" fill="#fff"/><path d="m318.4 190.3 9.9-5.7.1-.1-.1-.1-10 5.8z" fill="#fff"/><path d="m330.1 183.6 4.6-2.7v-.1h-.1l-4.6 2.7z" fill="#fff"/><path d="m308.7 180.4 5.7-9.9v-.1l-.1.1-5.8 9.9h.1z" fill="#fff"/><path d="m315.4 168.8 2.7-4.6-.1-.1v.1l-2.7 4.6z" fill="#fff"/><path d="m308.7 180.4 5.7-9.9v-.1l-.1.1-5.8 9.9h.1z" fill="#fff"/><path d="m315.4 168.8 2.7-4.6-.1-.1v.1l-2.7 4.6z" fill="#fff"/><path d="m302.2 177.7 3-11-.1-.1-3 11.1v.1z" fill="#fff"/><path d="m305.7 164.8 1.4-5.2h-.1l-1.4 5.1v.1z" fill="#fff"/><path d="m172.1 176.6h71.7v52.7h-8.9v-19.3h-2.7v-3.8h2.7c0-5.4-4.5-10.6-10.2-10.6s-10.2 5.2-10.2 10.6h2.7v3.8h-2.7v19.3h-14.8v-19.3h-2.7v-3.8h2.7c0-5.4-4.5-10.6-10.2-10.6-5.6 0-10.2 5.2-10.2 10.6h2.7v3.8h-2.7v19.3h-14.8v-19.3h-2.7v-3.8h2.7c0-4.4-3-8.6-7.1-10 3.1-6.3 10-14.8 14.7-19.6" fill="#d00d2d"/><path d="m181 301.6c-3.6-2.7-6.3-7.8-10.9-7.1-3.3.5-6.3 5.1-3.9 7.2 6 5.5 13.8 11.2 19.4 17.3-1.4-2.5-1.3-5 .7-7.3 2.9-3.2 5.5-2 5.5-2-3.1-2.3-7.5-5.6-10.8-8.1" fill="#fff"/><path d="m197 277.3c6.7 6.3 11.8 13.2 17.2 21.8 11.3-13.8 12.4-18.3 21.4-15.2-7.1-4.9-13.8-10.4-21.6-14.3-1.6-.8-4.1-.8-5.9 0-4.1 1.5-8.1 2.9-11.1 7.7" fill="#fff"/><path d="m227.5 289.3c1.2-2.3 3.9-4.1 6.6-3.1 3.3 1.3 2.3 5-.2 6.4-1.7.9-4-.7-3.4-2.2.2-.5.7-.9 1.3-.8-.2.8-.1 1.1.3 1.5.9.9 1.9-.1 2.5-1.3.7-1.3-.4-2.7-2.3-2.2-2.5.6-3.8 2.6-3.4 5.4.1.8 1 1.5 1.7 1.7 4.8 1 9.1-4.2 6.3-8.1-3-4.1-10.1-1.5-12.8 2.7 0 0 1.3 1.3 2.8 2.7.1-.1-.1-1.4.6-2.7" fill="#fff"/><path d="m190.9 310.9c-1.4.1-3.3.9-4.1 2.9-1.1 2.7-.6 5.9 2.3 7.5 5.8 3.3 15.3-8.9 19.2-15.7 0 0-3.2-6.5-5.5-10.6-2.8-4.9-5.5-9.1-9.5-13.6-5.1 5.6-8.3 12.3-14.1 17.1.6.6 1.2 1.2 1.8 1.8 5.1 5 17.8 10.1 14.7 16.1-1 1.9-3.3 3.5-5.5 2.6-3.3-1.3-2.8-5.5.2-6.4 1.4-.4 2.5.6 2 2-.4-.4-1.7-.7-2.2-.2-.7.6-.9 2 .8 3.2.7.5 2.2.2 3-.9.9-1.2 1.3-3.4-.8-5-.9-.7-1.9-.8-2.3-.8" fill="#fff"/><path d="m182.3 268.9.5-.1c22.5 8.2 45.4 57.1 48.9 69.7l-.9-.3c-2.5-6.2-4.8-11-12.1-13.4-3.3-7.9-16.5-41.6-36.4-55.9" fill="#fff"/><g fill="#d00d2d"><path d="m219.6 323.4c1.1.1 2.7 1.1 3.9 1.9h.1v-.1c-1.2-.8-2.8-1.8-3.9-1.9z"/><path d="m218.7 321c.9.1 3.1 1.1 3.9 1.7h.1v-.1c-.8-.7-3-1.7-3.9-1.8z"/><path d="m217.6 318.5c1.5.5 2.7.8 3.4 1.2h.1v-.1c-.7-.5-1.9-.8-3.4-1.2z"/><path d="m216.4 315.9c1.4.5 2.1.4 2.7.9h.1v-.1c-.7-.5-1.4-.5-2.8-.9z"/><path d="m215.5 313.6c1 .3 2.2.4 3.2 1h.1v-.1c-1-.6-2.3-.7-3.2-1z"/><path d="m214.6 311c.8 0 1.7.5 2.1.8h.1v-.1c-.4-.2-1.3-.8-2.2-.8z"/><path d="m213.7 308.9c.7.2 1.2.2 1.8.6h.1v-.1c-.6-.4-1.1-.5-1.8-.6z"/><path d="m212 306.3c.8.1 1.7.4 2.2.7h.1v-.1c-.5-.3-1.5-.6-2.2-.7z"/><path d="m210.7 304c.6.1 1 .2 1.7.7h.1v-.1c-.7-.5-1.1-.5-1.7-.7z"/><path d="m209.7 301.5c1 .3 1.2.4 1.6.7h.1v-.1c-.4-.2-.6-.4-1.6-.7z"/><path d="m208.5 299.2c.7.1 1 .4 1.4.7h.1v-.1c-.4-.2-.7-.6-1.4-.7z"/><path d="m206.8 296.7c.7.1 1.5.5 1.7.8h.1v-.1c-.3-.3-1.1-.6-1.8-.8z"/><path d="m205.5 294.5c.8.2 1.1.3 1.4.5h.1v-.1c-.4-.2-.7-.4-1.5-.5z"/><path d="m204 292.5c.5.2 1.2.4 1.5.7h.1v-.1c-.4-.3-1-.5-1.5-.7z"/><path d="m249.3 287.2c2.5-1.7 4.4-3 5.6-4 1.2-.9 2.3.5 4.7-1.2 4.1-2.9 6-5.6 7.8-3.4 1.8 2.3 2.8.6 3.8-.5 2.1-2.1 6.7-7 7.5-7s1.4.8 2.5.8 8.4-6.2 9.8-6.2 6.9 6.4 8.4 6.4 5.8-2.9 7.2-2.9 10.4 8.4 12.1 8.4 19.2-7 20.4-7 14.7 9 15.8 10.2-.8.6-1.5.2c-6-4-11-4.3-12.3-5.6-1.2-1.4-1.7-4.1-5.2 0s-3.1 7.9 1.8 11 10.3 6 11 10.2c.2.9-.8.5-1.1-.3s-4.4-5.9-10.3-7c-5.8-1.1-6.6-4.7-13.2-4.7s-9.2-3.7-10.7-3.7-2.6-1.1.6-1.1 3.1-.3 1.7-1.4-7.7-7.3-8.9-7.2c-1.2.2-2.8 6.6-2.3 11.4-3.1-4.7-10-15.3-14.6-14.9-1.8.2-1.8 5.6-1.4 8.5-1.8-1.2-4-3.5-4 1.5s4.1 1.7 3.4 14.9c-2-4.7-2.5-5.6-7.7-6.9-5.2-1.2-7.2-1.5-9.2-3.3s-4-4.4-8.6 1.5-6.4 7.6-1.4 7.5c5.1-.2-.8 4-4 6.9-2 1.8-3 5.1 1.8.3 2.1-2.1 3.4.6 6.3-1.5s3.5-1.7 5.1-1.8c-2.1 5-10.9 11.7-10.1 12.9s11.5-4.9 15.6-8.2c5.8-.9 21.9-7.2 27.4-9.8 3.2.9 6.4 1.4 8.1 2.1 1.7.8 4.7 4.9 14.7 1.2 4.1 2.1 4.7 3.3 13.6 7.2-4.7-.3-10.4-2.4-13.8-4.9-3.4 3.3-2.8 6.2 4.3 13.7-6.9-2.6-8.3-6.6-10.9-9.3s-5.3-1.5-8.1-4.9c-2.1-2.6-6.4-3.1-8.4-3.1s-10.6 6.6-12.1 9.1c6.4-.6 9-2.1 11.9-2-4.7 3.5-10.9 8.4-14.4 9.8s-9.7 7.2-10.7 9.9c4.6.2 9.2.9 8.9 2.7s-4.4 3.8-8.9 4.3c-.6.1-1.5.4-1.8 0-1-1.2-.5-3.2-1.7-4.3-.4-.4-.9.2-1.3.5-.7.5.1 1.4-.1 1.9-.2.7-1.2 1.3-2 1.5-.6.1-1-.7-1.3-1.2-.4-.6-.4.9-1.1.8-.6-.1-.8-.7-1-1.2-.1-.2.4-.6 0-.7-1-.3-1.1 1-1.3 1.8-.1.6-1.3.3-1.3.9 0 .7 1.3.1 1.2.9 0 .3-.6.3-.6.5-.2.7-.6 1.4-1.2 1.9s-1.3.3-2 .2c-.3-.1-.3.8-.5 1-.7.7-1.6 1.1-2 1.9-.1.2-.1.7-.3.8-1 .8-1.4 1.9-2.1 2.8 1.1-6.6 3.9-6.9 6.4-10.9s6.5-9.2 4.8-11.9c-2.3-3.7-13.5 4.3-14.6 1.2-1.1-3 .5-1.2 1.4-.6s1.4-1.7-.9-1.8c-2.3-.2-4.4 1.8-5 4.1"/><path d="m265.8 305.9c.4 0 .8-.2.8-.5s-.3-.5-.8-.5c-.4 0-.8.2-.8.5s.4.5.8.5"/><path d="m268.6 302.7c.4 0 .7-.1.7-.3s-.3-.3-.7-.3-.8.1-.8.3c.1.2.4.3.8.3"/><path d="m272.1 299.9c.5 0 1-.2 1-.3 0-.2-.4-.3-1-.3s-1 .2-1 .3c.1.1.5.3 1 .3"/><path d="m275.2 297.9c.2 0 .3-.4.3-.9s-.1-.9-.3-.9-.3.4-.3.9.1.9.3.9"/><path d="m274.7 294.3c.3 0 .6-.2.6-.4s-.2-.4-.6-.4c-.3 0-.5.2-.5.4s.3.4.5.4"/><path d="m270.5 292.7c.3 0 .6-.1.6-.3s-.2-.3-.6-.3c-.3 0-.5.2-.5.3-.1.1.2.3.5.3"/><path d="m265.6 295.1c.3 0 .5-.2.5-.4s-.2-.4-.5-.4-.5.2-.5.4c-.1.2.2.4.5.4"/><path d="m268.4 289.1c.4 0 .6-.2.6-.5s-.3-.5-.6-.5c-.4 0-.7.2-.7.5s.3.5.7.5"/><path d="m278.7 296c.4 0 .8-.2.8-.4s-.3-.4-.8-.4c-.4 0-.8.2-.8.4.1.3.4.4.8.4"/><path d="m279.3 298.6c.4 0 .6-.3.6-.7 0-.3-.3-.6-.6-.6-.4 0-.7.3-.7.6 0 .4.3.7.7.7"/><path d="m276.2 299.7c.4 0 .7-.2.7-.5s-.3-.5-.7-.5-.6.2-.6.5c0 .2.2.5.6.5"/><path d="m273.2 302.2c.4 0 .7-.2.7-.5s-.3-.5-.7-.5-.8.2-.8.5c.1.2.4.5.8.5"/><path d="m281.8 298.1c.3 0 .6-.2.6-.5s-.2-.5-.6-.5c-.3 0-.5.2-.5.5 0 .2.2.5.5.5"/><path d="m284.3 296.7c.4 0 .6-.3.6-.6 0-.4-.3-.7-.6-.7-.4 0-.7.3-.7.7 0 .3.3.6.7.6"/><path d="m282.4 294.3c.4 0 .7-.2.7-.6 0-.3-.3-.5-.7-.5s-.8.2-.8.5c.1.4.4.6.8.6"/><path d="m281.5 290.3c.2 0 .3-.2.3-.4s-.2-.4-.3-.4c-.2 0-.3.2-.3.4s.1.4.3.4"/><path d="m277.8 293.3c.2 0 .4-.1.4-.3s-.2-.3-.4-.3-.4.1-.4.3c0 .1.2.3.4.3"/><path d="m285.2 291.8c.2 0 .4-.2.4-.4s-.2-.4-.4-.4-.4.2-.4.4c-.1.2.1.4.4.4"/><path d="m286.1 294c.2 0 .4-.2.4-.4s-.2-.4-.4-.4-.4.2-.4.4.2.4.4.4"/><path d="m286.9 296.2c.2 0 .3-.2.3-.5s-.1-.5-.3-.5-.3.2-.3.5.2.5.3.5"/><path d="m294.9 289.8c.3 0 .5-.2.5-.4s-.2-.4-.5-.4-.5.2-.5.4.2.4.5.4"/><path d="m292.6 291.3c.3 0 .5-.2.5-.5s-.2-.5-.5-.5-.5.2-.5.5c0 .2.2.5.5.5"/><path d="m291.6 293.3c.3 0 .5-.2.5-.4s-.2-.4-.5-.4-.5.2-.5.4.2.4.5.4"/><path d="m291.5 288.9c.2 0 .4-.2.4-.3s-.2-.3-.4-.3-.4.2-.4.3c-.1.2.1.3.4.3"/><path d="m296.1 286.9c.3 0 .5-.2.5-.4s-.2-.4-.5-.4-.5.2-.5.4.2.4.5.4"/><path d="m298.9 290.7c.3 0 .5-.2.5-.5s-.2-.5-.5-.5-.6.2-.6.5c0 .2.3.5.6.5"/><path d="m297.4 291.8c.2 0 .4-.2.4-.4s-.2-.4-.4-.4-.4.2-.4.4.2.4.4.4"/><path d="m295 292.6c.2 0 .4-.1.4-.3s-.2-.3-.4-.3-.4.1-.4.3c-.1.1.1.3.4.3"/><path d="m293.1 293.9c.2 0 .4-.2.4-.4s-.2-.4-.4-.4-.4.2-.4.4.2.4.4.4"/><path d="m292.6 284.2c.2 0 .4-.2.4-.4s-.2-.4-.4-.4-.4.2-.4.4.2.4.4.4"/><path d="m298.7 282.6c.3 0 .5-.2.5-.4s-.2-.4-.5-.4-.5.2-.5.4c-.1.3.2.4.5.4"/><path d="m300.6 287.5c.2 0 .4-.2.4-.5s-.2-.5-.4-.5-.4.2-.4.5c-.1.3.1.5.4.5"/><path d="m303.1 290.4c.3 0 .5-.2.5-.5s-.2-.5-.5-.5-.5.2-.5.5c0 .2.2.5.5.5"/><path d="m306.4 291.2c.4 0 .6-.3.6-.7s-.3-.6-.6-.6-.7.3-.7.6c0 .4.3.7.7.7"/><path d="m308 288.9c.4 0 .7-.2.7-.6 0-.3-.3-.5-.7-.5s-.6.2-.6.5c0 .4.3.6.6.6"/><path d="m305.4 287.6c.2 0 .4-.2.4-.5s-.2-.5-.4-.5-.4.2-.4.5.2.5.4.5"/><path d="m309.7 282.9c.2 0 .4-.2.4-.4s-.2-.4-.4-.4-.4.2-.4.4c0 .3.1.4.4.4"/><path d="m312.1 287.3c.2 0 .3-.2.3-.4s-.2-.4-.3-.4-.3.2-.3.4.2.4.3.4"/><path d="m310 290.8c.4 0 .7-.3.7-.6 0-.4-.3-.7-.7-.7s-.7.3-.7.7c0 .3.3.6.7.6"/><path d="m316.1 288.3c.3 0 .5-.2.5-.6 0-.3-.2-.5-.5-.5s-.6.2-.6.5c.1.4.3.6.6.6"/><path d="m314.6 285.6c.2 0 .4-.2.4-.4s-.2-.4-.4-.4-.4.2-.4.4.2.4.4.4"/><path d="m314 290.1c.3 0 .5-.1.5-.3s-.2-.3-.5-.3-.6.1-.6.3.3.3.6.3"/><path d="m314.8 293c.4 0 .6-.2.6-.6 0-.3-.3-.5-.6-.5-.4 0-.7.2-.7.5.1.4.4.6.7.6"/><path d="m317.1 295.3c.4 0 .6-.2.6-.5s-.3-.5-.6-.5c-.4 0-.7.2-.7.5.1.3.4.5.7.5"/><path d="m318.2 293.7c.2 0 .4-.2.4-.5s-.2-.5-.4-.5-.4.2-.4.5.2.5.4.5"/><path d="m317 291.6c.2 0 .4-.2.4-.5s-.2-.5-.4-.5-.4.2-.4.5c0 .2.2.5.4.5"/><path d="m319.5 291.2c.2 0 .3-.2.3-.4s-.1-.4-.3-.4-.3.2-.3.4.1.4.3.4"/><path d="m320.7 288.5c.2 0 .4-.2.4-.4s-.2-.4-.4-.4-.4.2-.4.4.2.4.4.4"/><path d="m325.1 290.1c.2 0 .3-.2.3-.5s-.1-.5-.3-.5-.3.2-.3.5.1.5.3.5"/><path d="m324 292.5c.2 0 .4-.2.4-.5s-.2-.5-.4-.5-.4.2-.4.5.2.5.4.5"/><path d="m321.6 292.4c.4 0 .7-.2.7-.5s-.3-.5-.7-.5-.6.2-.6.5.3.5.6.5"/><path d="m320.5 295c.4 0 .7-.3.7-.6 0-.4-.3-.7-.7-.7s-.6.3-.6.7c-.1.4.2.6.6.6"/><path d="m322.9 294.7c.3 0 .5-.3.5-.6 0-.4-.2-.7-.5-.7s-.5.3-.5.7c0 .3.3.6.5.6"/><path d="m327.5 293c.4 0 .6-.2.6-.5s-.3-.5-.6-.5c-.4 0-.7.2-.7.5 0 .2.3.5.7.5"/><path d="m329.6 289.1c.2 0 .4-.2.4-.4s-.2-.4-.4-.4-.4.2-.4.4.2.4.4.4"/><path d="m332.2 292.7c.3 0 .5-.2.5-.5s-.2-.5-.5-.5-.6.2-.6.5.2.5.6.5"/><path d="m334.1 296.2c.3 0 .5-.2.5-.4s-.2-.4-.5-.4-.5.2-.5.4.2.4.5.4"/><path d="m329.5 295.6c.4 0 .7-.3.7-.7s-.3-.6-.7-.6-.6.3-.6.6c0 .4.3.7.6.7"/><path d="m336.4 285c.4 0 .8-.2.8-.5s-.3-.5-.8-.5c-.4 0-.8.2-.8.5.1.3.4.5.8.5"/><path d="m339.7 285c.4 0 .8-.3.8-.7s-.3-.8-.8-.8c-.4 0-.8.3-.8.8.1.4.4.7.8.7"/><path d="m342.8 282c.4 0 .6-.3.6-.7s-.3-.6-.6-.6c-.4 0-.7.3-.7.6 0 .4.3.7.7.7"/><path d="m339.2 280.3c.4 0 .8-.2.8-.4s-.3-.4-.8-.4c-.4 0-.8.2-.8.4s.4.4.8.4"/><path d="m348.2 284.8c.4 0 .7-.3.7-.6 0-.4-.3-.7-.7-.7s-.6.3-.6.7c-.1.3.2.6.6.6"/><path d="m343.6 286c.4 0 .8-.2.8-.5s-.3-.5-.8-.5c-.4 0-.8.2-.8.5 0 .2.3.5.8.5"/><path d="m346.8 288.4c.4 0 .7-.2.7-.5s-.3-.5-.7-.5-.6.2-.6.5c-.1.2.2.5.6.5"/><path d="m348.8 290.2c.3 0 .6-.3.6-.7s-.2-.6-.6-.6c-.3 0-.5.3-.5.6-.1.4.2.7.5.7"/><path d="m347.1 291.9c.4 0 .7-.2.7-.5s-.3-.5-.7-.5-.8.2-.8.5.4.5.8.5"/><path d="m349.2 294c.3 0 .5-.3.5-.7s-.2-.6-.5-.6-.5.3-.5.6c0 .4.2.7.5.7"/><path d="m344.5 289.7c.4 0 .6-.3.6-.7 0-.3-.3-.6-.6-.6-.4 0-.7.3-.7.6 0 .4.3.7.7.7"/><path d="m342.2 288.4c.3 0 .6-.2.6-.5s-.2-.5-.6-.5c-.3 0-.5.2-.5.5-.1.2.2.5.5.5"/><path d="m338.7 298.1c.3 0 .5-.2.5-.5s-.2-.5-.5-.5-.6.2-.6.5c.1.2.3.5.6.5"/><path d="m270.8 327.9c.4 0 .7-.3.7-.6 0-.4-.3-.6-.7-.6s-.6.3-.6.6.3.6.6.6"/><path d="m268.7 328.7c.3 0 .5-.2.5-.5s-.2-.5-.5-.5-.5.2-.5.5c0 .2.2.5.5.5"/><path d="m268.5 326.5c.2 0 .4-.3.4-.7s-.2-.6-.4-.6-.4.3-.4.6c0 .4.2.7.4.7"/><path d="m270.2 326.2c.4 0 .8-.2.8-.4s-.3-.4-.8-.4c-.4 0-.8.2-.8.4.1.2.4.4.8.4"/><path d="m274.3 324.1c.5 0 .9-.3.9-.6 0-.4-.4-.7-.9-.7s-.9.3-.9.7c0 .3.4.6.9.6"/><path d="m275.2 326.7c.4 0 .8-.2.8-.5s-.3-.5-.8-.5c-.4 0-.7.2-.7.5 0 .2.3.5.7.5"/><path d="m272.9 325.6c.3 0 .6-.2.6-.5s-.2-.5-.6-.5c-.3 0-.5.2-.5.5s.2.5.5.5"/><path d="m267.1 325.5c.4 0 .6-.3.6-.6 0-.4-.3-.7-.6-.7-.4 0-.6.3-.6.7-.1.3.2.6.6.6"/><path d="m266.4 327.3c.3 0 .5-.2.5-.5s-.2-.5-.5-.5-.5.2-.5.5.2.5.5.5"/><path d="m266.8 329.9c.2 0 .3-.2.3-.4s-.1-.4-.3-.4-.3.2-.3.4.1.4.3.4"/><path d="m264.8 330.6c.3 0 .5-.3.5-.7s-.2-.6-.5-.6-.5.3-.5.6c-.1.4.2.7.5.7"/><path d="m262.9 331.1c.4 0 .7-.4.7-.9s-.3-.9-.7-.9-.6.4-.6.9.2.9.6.9"/><path d="m261.9 332.3c.3 0 .6-.2.6-.4s-.2-.4-.6-.4c-.3 0-.5.2-.5.4-.1.2.2.4.5.4"/><path d="m260 333.7c.5 0 .9-.3.9-.6 0-.4-.4-.7-.9-.7s-.9.3-.9.7c.1.3.5.6.9.6"/><path d="m261.3 334.3c.2 0 .4-.2.4-.5s-.2-.5-.4-.5-.4.2-.4.5.2.5.4.5"/><path d="m258.5 336c.3 0 .5-.3.5-.7s-.2-.6-.5-.6-.5.3-.5.6c0 .4.2.7.5.7"/><path d="m256.7 337.8c.4 0 .8-.3.8-.6 0-.4-.3-.7-.8-.7-.4 0-.8.3-.8.7 0 .3.3.6.8.6"/><path d="m266.9 328.5c.2 0 .4-.2.4-.4s-.2-.4-.4-.4-.4.2-.4.4c-.1.2.1.4.4.4"/><path d="m273 326.7c.3 0 .5-.2.5-.4s-.2-.4-.5-.4-.5.2-.5.4c-.1.2.2.4.5.4"/><path d="m272.1 328.2c.3 0 .5-.2.5-.5s-.2-.5-.5-.5-.6.2-.6.5.3.5.6.5"/><path d="m274.1 325.1c.2 0 .4-.2.4-.4s-.2-.4-.4-.4-.4.2-.4.4.2.4.4.4"/></g><path d="m170.7 360.7 2-3s4.7 3 5.8 3.7c2.9 1.8 5 .1 6.2-1.9 1.3-2 1.1-1.6 1.6-2.5 1.3-2.1 1.9-3.8-1.3-5.8l-5.8-3.7 2.2-3.4s6.2 4 7.6 4.8c1.4.9 5.4 5.2 1.6 11.1-.3.5-.9 1.3-1.6 2.4-2 3.2-6.9 5.5-10.7 3"/><path d="m180 343.3s-8.5 9.8-9.3 10.6c-1.7 2-5.8 3-9 .3-2.5-2.1-2.1-1.8-3.3-2.8-2.5-2.1-3.6-6.5-1.2-9.3 2.2-2.5 9.1-10.5 9.1-10.5l3.6 3.1-5.4 6.2 5.8 5-2.4 2.7-5.8-4.9s-1.1 1.3-1.4 1.6c-.9 1-.9 2 .1 2.8.9.8 2.6 2.2 3.5 3s2.2.3 2.9-.5 9.1-10.4 9.1-10.4"/><path d="m153.8 322.4c3 3.4 3.6 4.1 4.3 5 1 1.2.8 3.4-.4 4.4-.8.7-9.9 8.5-9.9 8.5l3.1 3.6s9.6-8.2 10.4-8.9c2-1.7 3-5.8.3-8.9-2.1-2.4-2-2.3-5.1-5.9"/><path d="m153.3 315.2c-6.2 4.4-16.2 11.5-16.2 11.5l2.8 3.8s10-7.1 16.2-11.5"/><path d="m130.2 309.1c2.4 3.9 3.8 6.1 4.4 7.1.8 1.3 3 1.8 4.3 1 .9-.6 11.1-6.8 11.1-6.8l2.5 4s-10.7 6.6-11.7 7.2c-2.2 1.4-6.4 1.1-8.7-2.4-1.7-2.7-2.5-4-5.1-8.1"/><path d="m139.9 316.9c-3.2-5.1-3.6-5.8-6.2-9.9l3-1.9c2.4 3.9 4.1 6.6 6.2 9.9"/><path d="m125.2 297c1.2 3.2 2.2 4.1 7.6 2.1 5.6-2.1 5.4-3.7 4.3-6.6s-2.1-4.2-7.6-2.1c-5.4 2-5.6 3.3-4.3 6.6m9.3 6.8c-7.7 2.9-10.8.4-13.1-5.4-2.2-5.9-1.5-9.8 6.2-12.7 7.8-2.9 11.1.4 13.1 5.4 1.9 5.1 1.6 9.8-6.2 12.7z"/><path d="m115 271.3c1 4.7 1.9 9.1 2.5 12.3 1.1-.2 19.4-3.9 19.4-3.9l-1-4.6s-17.5 3.5-15.9 3.2c-.2-1.1-.2-1.2-1.1-5.6-.2-1.1.8-2.4 1.8-2.6s2.6.4 2.8 1.7l1 4.8 3.5-.7s-.6-3.1-.8-4 .3-2.6 2.3-3l5-1-1-4.6s-3.6.7-4.1.8c-2.4.5-4.7 1.7-4.1 4.2-.4-2.2-2.9-3.3-5.9-2.7-1.2.1-5.2 1.7-4.4 5.7"/><path d="m119.4 257.4v-.3l1.1-.4 12.6-8-.2-5.3-19.9.8.2 4.7 13.1-.5v.3l-1.1.4-11.7 7.3.2 6c1.1 0 19.8-.8 19.8-.8l-.2-4.7"/><path d="m133.8 236.8c-7.5-.7-19.8-1.8-19.8-1.8l-.4 4.7s12.3 1.1 19.8 1.7"/><path d="m133.7 236.2s-12.8-2.4-13.9-2.6c-2.6-.5-5.5-3.5-4.8-7.6.6-3.2.5-2.8.8-4.2.6-3.2 3.8-6.4 7.5-5.7 3.3.6 13.7 2.6 13.7 2.6l-.9 4.6-8-1.5-1.4 7.5-3.6-.7 1.4-7.4s-1.7-.3-2.2-.4c-1.3-.2-2.2.2-2.4 1.5-.2 1.2-.6 3.4-.8 4.5s.8 2.1 1.8 2.3 13.6 2.6 13.6 2.6"/><path d="m159.3 176.4s-9.5-8.9-10.3-9.6c-1.9-1.8-2.8-5.9.1-8.9 2.2-2.4 1.9-2 3-3.1 2.3-2.4 6.7-3.3 9.4-.8 2.5 2.3 10.1 9.5 10.1 9.5l-3.2 3.4-6-5.6-5.3 5.5-2.6-2.5 5.2-5.5s-1.3-1.2-1.6-1.5c-1-.9-1.9-1-2.9 0-.8.9-2.4 2.5-3.2 3.3-.8.9-.4 2.2.3 2.9.8.7 10.1 9.4 10.1 9.4"/><path d="m130.8 191.4c.6-1.2 4.3-8.4 4.3-8.4l-3.2-1.6-4.9 9.7c-1.8 3.6 0 6.8 2.3 7.9 2.3 1.2 6.2 1.7 8.2-2.1 0 0 2.1-4.1 2.9-5.6.6-1.2 1.8-1.3 2.7-.9s1.4 1.4.8 2.6l-5 9.9 3.6 1.8s4.7-9.3 5.5-10.8c1.2-2.4.1-5.7-3.3-7.4-3.7-1.9-6.3-.3-8 3l-2 3.9c-.8 1.6-1.9 2.2-3.3 1.5-1.6-.8-1.2-2.4-.6-3.5"/><path d="m155.7 181.4c-6.2-4.3-16.3-11.4-16.3-11.4l-2.7 3.9s10.1 7 16.3 11.3"/><path d="m146.2 166.7-3-2-10.3 14.6 3 2"/><path d="m180.2 156.9c-4.7-5.9-12.2-15.6-12.2-15.6l-3.7 2.9s7.6 9.6 12.2 15.6"/><path d="m175.4 140.1-2.2-2.9-14.2 11 2.2 2.8"/><path d="m187.7 129.1 1.8 3.1s-4.8 2.8-5.9 3.5c-2.9 1.7-2.3 4.4-1.1 6.4s1 1.7 1.5 2.5c1.3 2.1 2.6 3.4 5.8 1.5l5.9-3.5 2.1 3.5s-6.3 3.7-7.8 4.5c-1.4.8-7.1 2.4-10.7-3.6-.3-.5-.8-1.4-1.5-2.5-1.9-3.2-1.8-8.6 2.1-10.9"/><path d="m193.6 138.7-1.8-3.1-10.2 6 1.9 3.1"/><path d="m373.1 205.8.1.2-1 .6-9.9 11.1 1.7 5.1 18.9-6.2-1.5-4.5-12.4 4-.1-.2 1-.6 9.2-10.2-1.9-5.7c-1 .3-18.8 6.1-18.8 6.1l1.5 4.5"/><path d="m381.9 230.6c-.5-3.4-1.3-4.5-7-3.7-5.9.9-6.1 2.5-5.7 5.5.5 3 1.1 4.5 7 3.7 5.8-.7 6.2-2 5.7-5.5m-7.7-8.6c8.2-1.2 10.7 1.8 11.6 8.1.9 6.2-.6 9.9-8.7 11.1-8.3 1.2-10.8-2.7-11.6-8.1s.5-9.9 8.7-11.1z"/><path d="m386.6 256.3c0-4.8 0-9.3-.1-12.5-1.1 0-19.8.1-19.8.1v4.7s17.9-.1 16.2-.1v5.7c0 1.2-1.3 2.2-2.3 2.2s-2.4-.9-2.4-2.2v-4.9h-3.6v4.1c0 .9-.8 2.5-2.8 2.5h-5.1v4.7h4.2c2.4 0 4.9-.7 4.9-3.3 0 2.2 2.2 3.8 5.2 3.8 1.4.1 5.6-.8 5.6-4.8"/><path d="m369.8 315.7c2.1-4.3 4.1-8.4 5.5-11.2-1-.5-17.8-8.6-17.8-8.6l-2.1 4.2s16.1 7.8 14.6 7c-.5 1-.5 1.1-2.5 5.2-.5 1-2.1 1.4-3 .9s-1.8-1.9-1.2-3.1l2.2-4.4-3.3-1.6s-1.4 2.9-1.8 3.7-1.9 1.9-3.7 1l-4.6-2.2-2.1 4.2s3.3 1.6 3.8 1.8c2.2 1 4.7 1.5 5.9-.8-1 2 .3 4.4 3 5.7 1.1.7 5.3 1.8 7.1-1.8"/><path d="m346.2 316c6.3 4.2 16.6 11 16.6 11l2.6-3.9s-10.3-6.8-16.6-11"/><path d="m364.8 272c7.5 1.3 19.6 3.3 19.6 3.3l.8-4.6s-12.1-2.1-19.6-3.3"/><path d="m379.7 281.3 3.6.6 3-17.6-3.5-.6"/><path d="m358.4 294.2c7.2 2.3 19 5.9 19 5.9l1.3-4s-11.7-3.6-19-5.9"/><path d="m367.2 294.1 3.4 1 3.1-9.8-3.4-1.1"/><path d="m362 282.8c7.2 2.3 19 5.9 19 5.9l1.3-4s-11.7-3.7-19-5.9"/><path d="m315.8 369.3-1.9-3.1s4.7-2.9 5.9-3.6c2.9-1.8 2.2-4.4 1-6.4s-1-1.7-1.5-2.5c-1.3-2.1-2.7-3.3-5.8-1.4l-5.9 3.6-2.1-3.4s6.3-3.8 7.7-4.7 7.1-2.6 10.8 3.4c.3.5.8 1.4 1.5 2.5 2 3.2 2 8.5-1.9 10.9"/><path d="m309.7 359.8 1.9 3.1 10-6.2-1.9-3"/><path d="m332.9 358.3-2.3-2.8s5.4-4.4 6.4-5.3c2.6-2.2 1.5-4.7.1-6.5-1.5-1.8-1.3-1.5-1.9-2.3-1.6-1.9-3.1-2.9-5.9-.5l-5.3 4.4-2.6-3.1s5.6-4.7 6.9-5.7c1.3-1.1 6.7-3.5 11.2 1.8.4.5 1 1.2 1.9 2.2 2.4 2.9 3.2 8.2-.3 11.1"/><path d="m326.5 348.8 2.4 2.8 6.7-5.5-2.4-2.8"/><path d="m320.1 343.1c4.9 5.8 7.8 9.3 7.8 9.3l3.7-3.1s-2.9-3.5-7.8-9.3"/><path d="m341.5 322.3 2.8 2.2s-1.6 2-2.4 3.1c-2.1 2.7-.5 4.9 1.3 6.3 1.9 1.4 1.4 1.1 2.2 1.7 2 1.5 4.5 2.2 6.8-.7l4.6-5.9 2.8 2.2s-4.5 5.8-5.5 7.1-5.8 4.9-11.3.6c-.5-.4-1.2-1-2.3-1.8-3-2.3-4.9-7.3-2-10.9"/><path d="m360.6 329.9c-6-4.6-15.7-12.1-15.7-12.1l-3 3.8s9.6 7.4 15.7 12.1"/><path d="m229.7 121.6h.3l.5 1.1 9.3 11.7 5.3-.7-2.8-19.6-4.7.7 1.8 12.9h-.3l-.4-1.1-8.4-10.8-6 .8c.2 1.1 2.8 19.5 2.8 19.5l4.7-.7"/><path d="m311.1 128.4c-4.5-1.9-8.6-3.7-11.5-5-.4 1-7.9 18.1-7.9 18.1l4.4 1.9s7.2-16.3 6.5-14.8c1.1.5 1.1.5 5.3 2.3 1.1.5 1.5 2 1.1 3-.4.9-1.8 1.9-3 1.3l-4.5-1.9-1.4 3.3s2.9 1.3 3.8 1.6c.9.4 1.9 1.8 1.2 3.6l-2 4.6 4.3 1.9s1.5-3.3 1.7-3.8c1-2.2 1.3-4.8-1.1-5.8 2.1.9 4.4-.4 5.6-3.2.3-1.3 1.2-5.5-2.5-7.1"/><path d="m322.5 139.2c1.1.7 7.9 5.2 7.9 5.2l2-3-9.1-6c-3.4-2.2-6.8-.8-8.1 1.3-1.4 2.2-2.4 6 1.1 8.3 0 0 3.9 2.6 5.3 3.5 1.1.7 1.1 1.9.6 2.7s-1.5 1.2-2.7.5l-9.3-6.1-2.3 3.4s8.8 5.8 10.2 6.7c2.3 1.5 5.6.7 7.7-2.4 2.3-3.4 1-6.2-2.1-8.2l-3.6-2.4c-1.5-1-2-2.1-1.1-3.4.9-1.4 2.4-.9 3.5-.1"/><path d="m327 162.7c4.9-5.7 13-15 13-15l-3.6-3.1s-8 9.3-13 15"/><path d="m251.7 133.9c0-7.5.1-19.8.1-19.8h-4.7s0 12.2-.1 19.8"/><path d="m335.7 171c5.5-5.2 14.3-13.7 14.3-13.7l-3.3-3.4s-8.9 8.5-14.3 13.7"/><path d="m352 164.5 2.6-2.5-12.4-12.8-2.6 2.5"/><path d="m221 134c-4.4 1.3-5.2 1.5-6.3 1.9-1.5.4-3.4-.7-3.9-2.2-.3-1-3.7-12.4-3.7-12.4l-4.5 1.3s3.6 12 3.9 13.1c.8 2.5 4 5.1 8.1 3.9 3.1-.9 2.9-.8 7.5-2.2"/><path d="m225.6 136.4c-2.1-7.2-5.6-19-5.6-19l-4.1 1.2s3.5 11.7 5.6 19"/><path d="m295.5 121.9-1 3.5s-5.3-1.5-6.6-1.9c-3.3-.9-4.8 1.4-5.4 3.6-.7 2.2-.6 1.9-.8 2.8-.7 2.4-.7 4.2 2.9 5.2l6.6 1.9-1.1 3.9s-7.1-2-8.7-2.5-6.7-3.5-4.7-10.2c.2-.6.4-1.5.8-2.8 1-3.6 5-7.2 9.4-6"/><path d="m292.6 132.8 1-3.4-11.4-3.3-1 3.5"/><path d="m265 134.8-4.7-.6-5.5-20.5 4.7.5"/><path d="m267.1 118.1c4.5.5 5.5.8 2.4 5.4l-6.4 11 4.7.5 6.6-11.4c3.8-6.1 2.5-7.5-7-8.6"/><path d="m349.5 183.4-2.8-3.8 9.6-16.6 2.8 3.8"/><path d="m348.2 181 9.9-2.3c5.5-1 5-1.8 2.3-5.5l2.4-1.8c5.7 7.7 5.5 9.5-1.5 10.9l-12.9 3c-2.8.6-4.2.6-5.8-1.6s-5.1-6.8-5.1-6.8l2.8-2s2.5 3.4 3.5 4.8c1.6 2 2.3 1.7 4.4 1.3"/><path d="m352.4 193.9-1-1.8 3.6-2 2.1 3.7s-2.2 1.3-2.8 1.6c-1 .5-2.8.8-4.3-.1"/><path d="m218.5 361.8 6.3 1.6s-3.1 11.9-5 19.2l-4-1c1.3-4.9 3-11.7 4.1-15.8l-2.3-.6"/><path d="m225.6 369.3c-.6 4.1 1.4 6 3.2 6.2 1.4.2 9 1.2 9 1.2-.3 2.3-2 4.7-5.3 4.3-1.3-.2-6.8-.9-6.8-.9l-.5 3.6 8.9 1.2c4.6.6 8-3.5 8.5-7.2.2-1.3.3-2.3.4-2.9 1-6.9-4.5-9.2-6.2-9.4s-4.8-.7-4.8-.7c-2.7-.3-5.9 1.3-6.4 4.6m7.2 3.2c-1.6-.2-2.7-.4-2.4-2.2.2-1.8 1.6-2.3 2.8-2.1l1.8.2c3.7.5 3.8 2.4 3.4 4.8z"/><path d="m273.7 375.2c-1.2.2-2 1.4-1.7 2.6.2 1.2 1.4 2 2.6 1.7l4.9-1c1.2-.3 2-1.4 1.7-2.6-.2-1.2-1.4-2-2.6-1.7m1.6-2.5c2.4-.5 4.8 1.3 5.4 4s-1 5.3-3.4 5.8l-9.7 2c-2.4.5-4.8-1.3-5.4-4s1-5.3 3.4-5.8z"/><path d="m277.9 370.8c1.2-.2 2-1.4 1.7-2.6-.2-1.2-1.4-2-2.7-1.7l-4.9 1c-1.2.2-2 1.4-1.8 2.6s1.4 2 2.6 1.7m-2.2 2.7c-2.4.5-4.8-1.3-5.4-4s1-5.3 3.4-5.8l9.7-2c2.4-.5 4.8 1.3 5.4 4s-.9 5.3-3.4 5.8z"/><path d="m262.4 366h-16.1v11.8h10.1c1.6 0 2 1.1 2 1.8s-.1 1.9-1.9 1.9-10.3 0-10.3 0v4.3h12.3c3.8 0 5.1-3 5.1-6.3 0-2.5-1.1-5.6-5.6-5.6s-6.9 0-6.9 0v-3.8h11.3"/></svg>